<svg width="41" height="48" viewBox="0 0 41 48" fill="none" xmlns="http://www.w3.org/2000/svg">
<path d="M38.0824 33.359C35.1302 27.7499 32.1781 28.6356 28.9308 28.3404C29.226 29.226 29.226 30.1116 29.226 31.2925C33.9494 32.4733 35.1302 38.0824 35.1302 41.3297V44.2818H29.226V41.3297H32.1781C32.1781 41.3297 32.1781 33.9494 27.7499 33.9494C23.3218 33.9494 23.3218 41.0345 23.3218 41.3297H26.2739V44.2818H20.3696V41.3297C20.3696 38.0824 21.5505 32.1781 26.2739 31.2925C26.2739 29.5212 25.9787 28.0451 25.6835 27.4547C25.093 27.1595 24.5026 26.5691 24.5026 25.6835C24.5026 23.9122 26.8643 24.5026 28.6356 21.2553C28.6356 21.2553 31.2925 14.4654 30.4068 8.56115H27.4547C27.4547 7.97073 27.7499 7.67551 27.7499 7.08509C27.7499 6.49467 27.7499 6.19945 27.4547 5.60903H29.8164C28.9308 2.65691 25.9787 0 20.3696 0C14.7606 0 11.8085 2.65691 10.6276 5.90424H12.9893C12.9893 6.49467 12.6941 6.78988 12.6941 7.3803C12.6941 7.97073 12.6941 8.26594 12.9893 8.85636H10.0372C9.44679 14.7606 11.8085 21.5505 11.8085 21.5505C13.5798 24.5026 15.9415 23.9122 15.9415 25.9787C15.9415 27.4547 14.4654 28.0451 12.6941 28.3404C12.1037 28.9308 11.5133 30.1116 11.5133 32.4733V36.0159C13.2845 36.6063 14.4654 38.3776 14.4654 40.1488C14.4654 42.2153 12.3989 44.2818 10.0372 44.2818C7.67551 44.2818 5.60903 42.2153 5.60903 39.8536C5.60903 37.7871 6.78988 36.3111 8.56115 35.7207V32.1781C8.56115 30.7021 8.85636 29.5212 9.15157 28.3404C7.08509 28.6356 4.72339 29.5212 2.65691 33.359C0.885636 36.6063 0 47.2339 0 47.2339H40.4441C40.7393 47.2339 39.8536 36.6063 38.0824 33.359ZM15.9415 7.3803C15.9415 5.01861 18.0079 2.95212 20.3696 2.95212C22.7313 2.95212 24.7978 5.01861 24.7978 7.3803C24.7978 9.742 22.7313 11.8085 20.3696 11.8085C18.0079 11.8085 15.9415 9.742 15.9415 7.3803Z" fill="#3D71BD"/>
</svg>
